<svg xmlns="http://www.w3.org/2000/svg" style="display: none">
  <symbol id="BrandReddit" viewBox="0 0 24 24">
    <g fill="none" stroke="currentColor" stroke-width="2" stroke-linecap="round" stroke-linejoin="round">
      <path d="M12 8c2.648 0 5.028.826 6.675 2.14a2.5 2.5 0 0 1 2.326 4.36c0 3.59-4.03 6.5-9 6.5c-4.875 0-8.845-2.8-9-6.294l-1-.206a2.5 2.5 0 0 1 2.326-4.36C5.973 8.827 8.353 8 11.001 8z"></path>
      <path d="M12 8l1-5l6 1"></path>
      <circle cx="19" cy="4" r="1"></circle>
      <circle cx="9" cy="13" r=".5" fill="currentColor"></circle>
      <circle cx="15" cy="13" r=".5" fill="currentColor"></circle>
      <path d="M10 17c.667.333 1.333.5 2 .5s1.333-.167 2-.5"></path>
    </g>
  </symbol>
  <symbol id="Bulb" viewBox="0 0 24 24">
    <g fill="none" stroke="currentColor" stroke-width="2" stroke-linecap="round" stroke-linejoin="round">
      <path d="M3 12h1m8-9v1m8 8h1M5.6 5.6l.7.7m12.1-.7l-.7.7"></path>
      <path d="M9 16a5 5 0 1 1 6 0a3.5 3.5 0 0 0-1 3a2 2 0 0 1-4 0a3.5 3.5 0 0 0-1-3"></path>
      <path d="M9.7 17h4.6"></path>
    </g>
  </symbol>
  <symbol id="CurrentLocation" viewBox="0 0 24 24">
    <g fill="none" stroke="currentColor" stroke-width="2" stroke-linecap="round" stroke-linejoin="round">
      <circle cx="12" cy="12" r="3"></circle>
      <circle cx="12" cy="12" r="8"></circle>
      <path d="M12 2v2"></path><path d="M12 20v2"></path>
      <path d="M20 12h2"></path><path d="M2 12h2"></path>
    </g>
  </symbol>
  <symbol id="Diamond" viewBox="0 0 24 24">
    <g fill="none" stroke="currentColor" stroke-width="2" stroke-linecap="round" stroke-linejoin="round">
      <path d="M6 5h12l3 5l-8.5 9.5a.7.7 0 0 1-1 0L3 10l3-5"></path>
      <path d="M10 12L8 9.8l.6-1"></path>
    </g>
  </symbol>
  <symbol id="MoodNeutral" viewBox="0 0 24 24">
    <g fill="none" stroke="currentColor" stroke-width="2" stroke-linecap="round" stroke-linejoin="round">
      <circle cx="12" cy="12" r="9"></circle>
      <path d="M9 10h.01"></path><path d="M15 10h.01"></path>
    </g>
  </symbol>
  <symbol id="Snowflake" viewBox="0 0 24 24">
    <g fill="none" stroke="currentColor" stroke-width="2" stroke-linecap="round" stroke-linejoin="round">
      <path d="M10 4l2 1l2-1m-2-2v6.5l3 1.72"></path>
      <path d="M17.928 6.268l.134 2.232l1.866 1.232M20.66 7l-5.629 3.25l.01 3.458"></path>
      <path d="M19.928 14.268L18.062 15.5l-.134 2.232M20.66 17l-5.629-3.25l-2.99 1.738"></path>
      <path d="M14 20l-2-1l-2 1m2 2v-6.5l-3-1.72"></path>
      <path d="M6.072 17.732L5.938 15.5l-1.866-1.232M3.34 17l5.629-3.25l-.01-3.458"></path>
      <path d="M4.072 9.732L5.938 8.5l.134-2.232M3.34 7l5.629 3.25l2.99-1.738"></path>
    </g>
  </symbol>
  <symbol id="Speedboat" viewBox="0 0 24 24">
    <g fill="none" stroke="currentColor" stroke-width="2" stroke-linecap="round" stroke-linejoin="round">
      <path d="M3 17h13.4a3 3 0 0 0 2.5-1.34L22 11h0h-6.23a4 4 0 0 0-1.49.29l-3.56 1.42a4 4 0 0 1-1.49.29H5.5h0h-1L3 17z"></path>
      <path d="M6 13l1.5-5"></path>
      <path d="M6 8h8l2 3"></path>
    </g>
  </symbol>
  <symbol id="Windmill" viewBox="0 0 24 24">
    <g fill="none" stroke="currentColor" stroke-width="2" stroke-linecap="round" stroke-linejoin="round">
      <path d="M12 12c2.76 0 5-2.01 5-4.5S14.76 3 12 3v9z"></path>
      <path d="M12 12c0 2.76 2.01 5 4.5 5s4.5-2.24 4.5-5h-9z"></path>
      <path d="M12 12c-2.76 0-5 2.01-5 4.5S9.24 21 12 21v-9z"></path>
      <path d="M12 12c0-2.76-2.01-5-4.5-5S3 9.24 3 12h9z"></path>
    </g>
  </symbol>
</svg>


